<svg width="343" height="274" viewBox="0 0 343 274" fill="none" xmlns="http://www.w3.org/2000/svg">
<rect width="343" height="274" rx="2" fill="#EEEEEE"/>
<path d="M179 127H165C164.204 127 163.441 127.316 162.879 127.879C162.316 128.441 162 129.204 162 130V144C162 144.796 162.316 145.559 162.879 146.121C163.441 146.684 164.204 147 165 147H179C179.164 146.998 179.328 146.981 179.49 146.95L179.79 146.88H179.86H179.91L180.28 146.74L180.41 146.67C180.51 146.61 180.62 146.56 180.72 146.49C180.854 146.392 180.98 146.285 181.1 146.17L181.17 146.08C181.268 145.981 181.358 145.874 181.44 145.76L181.53 145.63C181.6 145.519 181.66 145.402 181.71 145.28C181.737 145.232 181.761 145.182 181.78 145.13C181.83 145.01 181.86 144.88 181.9 144.75V144.6C181.957 144.405 181.99 144.203 182 144V130C182 129.204 181.684 128.441 181.121 127.879C180.559 127.316 179.796 127 179 127ZM165 145C164.735 145 164.48 144.895 164.293 144.707C164.105 144.52 164 144.265 164 144V139.69L167.29 136.39C167.383 136.296 167.494 136.222 167.615 136.171C167.737 136.12 167.868 136.094 168 136.094C168.132 136.094 168.263 136.12 168.385 136.171C168.506 136.222 168.617 136.296 168.71 136.39L177.31 145H165ZM180 144C179.999 144.123 179.975 144.245 179.93 144.36C179.907 144.409 179.88 144.456 179.85 144.5C179.823 144.542 179.793 144.582 179.76 144.62L174.41 139.27L175.29 138.39C175.383 138.296 175.494 138.222 175.615 138.171C175.737 138.12 175.868 138.094 176 138.094C176.132 138.094 176.263 138.12 176.385 138.171C176.506 138.222 176.617 138.296 176.71 138.39L180 141.69V144ZM180 138.86L178.12 137C177.548 136.457 176.789 136.154 176 136.154C175.211 136.154 174.452 136.457 173.88 137L173 137.88L170.12 135C169.548 134.457 168.789 134.154 168 134.154C167.211 134.154 166.452 134.457 165.88 135L164 136.86V130C164 129.735 164.105 129.48 164.293 129.293C164.48 129.105 164.735 129 165 129H179C179.265 129 179.52 129.105 179.707 129.293C179.895 129.48 180 129.735 180 130V138.86ZM173.5 131C173.203 131 172.913 131.088 172.667 131.253C172.42 131.418 172.228 131.652 172.114 131.926C172.001 132.2 171.971 132.502 172.029 132.793C172.087 133.084 172.23 133.351 172.439 133.561C172.649 133.77 172.916 133.913 173.207 133.971C173.498 134.029 173.8 133.999 174.074 133.886C174.348 133.772 174.582 133.58 174.747 133.333C174.912 133.087 175 132.797 175 132.5C175 132.102 174.842 131.721 174.561 131.439C174.279 131.158 173.898 131 173.5 131Z" fill="#1B1B1B"/>
</svg>
